# Tiled2Unity generated file. Do not modify by hand.
# Wavefront file for 'Level_01_mesh_0001.obj'

# Vertices (Count = 184)
v -8.32 -4.96 0
v -8.48 -4.96 0
v -8.48 -4.8 0
v -8.32 -4.8 0
v -8.32 -5.12 0
v -8.48 -5.12 0
v -8.48 -4.96 0
v -8.32 -4.96 0
v -8.32 -5.28 0
v -8.48 -5.28 0
v -8.48 -5.12 0
v -8.32 -5.12 0
v -8.32 -5.44 0
v -8.48 -5.44 0
v -8.48 -5.28 0
v -8.32 -5.28 0
v -7.68 -5.6 0
v -7.84 -5.6 0
v -7.84 -5.44 0
v -7.68 -5.44 0
v -8.16 -5.6 0
v -8.32 -5.6 0
v -8.32 -5.44 0
v -8.16 -5.44 0
v -8.32 -5.6 0
v -8.48 -5.6 0
v -8.48 -5.44 0
v -8.32 -5.44 0
v -7.68 -5.76 0
v -7.84 -5.76 0
v -7.84 -5.6 0
v -7.68 -5.6 0
v -7.84 -5.76 0
v -8 -5.76 0
v -8 -5.6 0
v -7.84 -5.6 0
v -8 -5.76 0
v -8.16 -5.76 0
v -8.16 -5.6 0
v -8 -5.6 0
v -8.16 -5.76 0
v -8.32 -5.76 0
v -8.32 -5.6 0
v -8.16 -5.6 0
v -8.32 -5.76 0
v -8.48 -5.76 0
v -8.48 -5.6 0
v -8.32 -5.6 0
v -7.2 -5.92 0
v -7.36 -5.92 0
v -7.36 -5.76 0
v -7.2 -5.76 0
v -8.16 -5.92 0
v -8.32 -5.92 0
v -8.32 -5.76 0
v -8.16 -5.76 0
v -7.2 -6.08 0
v -7.36 -6.08 0
v -7.36 -5.92 0
v -7.2 -5.92 0
v -7.2 -6.24 0
v -7.36 -6.24 0
v -7.36 -6.08 0
v -7.2 -6.08 0
v -7.2 -6.4 0
v -7.36 -6.4 0
v -7.36 -6.24 0
v -7.2 -6.24 0
v -7.2 -6.56 0
v -7.36 -6.56 0
v -7.36 -6.4 0
v -7.2 -6.4 0
v -6.88 -6.72 0
v -7.04 -6.72 0
v -7.04 -6.56 0
v -6.88 -6.56 0
v -7.04 -6.72 0
v -7.2 -6.72 0
v -7.2 -6.56 0
v -7.04 -6.56 0
v -7.2 -6.72 0
v -7.36 -6.72 0
v -7.36 -6.56 0
v -7.2 -6.56 0
v -6.88 -6.88 0
v -7.04 -6.88 0
v -7.04 -6.72 0
v -6.88 -6.72 0
v -7.04 -6.88 0
v -7.2 -6.88 0
v -7.2 -6.72 0
v -7.04 -6.72 0
v -7.2 -6.88 0
v -7.36 -6.88 0
v -7.36 -6.72 0
v -7.2 -6.72 0
v -3.68 -7.04 0
v -3.84 -7.04 0
v -3.84 -6.88 0
v -3.68 -6.88 0
v -3.84 -7.04 0
v -4 -7.04 0
v -4 -6.88 0
v -3.84 -6.88 0
v -4 -7.04 0
v -4.16 -7.04 0
v -4.16 -6.88 0
v -4 -6.88 0
v -4.16 -7.04 0
v -4.32 -7.04 0
v -4.32 -6.88 0
v -4.16 -6.88 0
v -4.32 -7.04 0
v -4.48 -7.04 0
v -4.48 -6.88 0
v -4.32 -6.88 0
v -4.48 -7.04 0
v -4.64 -7.04 0
v -4.64 -6.88 0
v -4.48 -6.88 0
v -4.64 -7.04 0
v -4.8 -7.04 0
v -4.8 -6.88 0
v -4.64 -6.88 0
v -4.8 -7.04 0
v -4.96 -7.04 0
v -4.96 -6.88 0
v -4.8 -6.88 0
v -4.96 -7.04 0
v -5.12 -7.04 0
v -5.12 -6.88 0
v -4.96 -6.88 0
v -5.12 -7.04 0
v -5.28 -7.04 0
v -5.28 -6.88 0
v -5.12 -6.88 0
v -5.28 -7.04 0
v -5.44 -7.04 0
v -5.44 -6.88 0
v -5.28 -6.88 0
v -5.44 -7.04 0
v -5.6 -7.04 0
v -5.6 -6.88 0
v -5.44 -6.88 0
v -5.6 -7.04 0
v -5.76 -7.04 0
v -5.76 -6.88 0
v -5.6 -6.88 0
v -5.76 -7.04 0
v -5.92 -7.04 0
v -5.92 -6.88 0
v -5.76 -6.88 0
v -5.92 -7.04 0
v -6.08 -7.04 0
v -6.08 -6.88 0
v -5.92 -6.88 0
v -6.08 -7.04 0
v -6.24 -7.04 0
v -6.24 -6.88 0
v -6.08 -6.88 0
v -6.24 -7.04 0
v -6.4 -7.04 0
v -6.4 -6.88 0
v -6.24 -6.88 0
v -6.4 -7.04 0
v -6.56 -7.04 0
v -6.56 -6.88 0
v -6.4 -6.88 0
v -6.56 -7.04 0
v -6.72 -7.04 0
v -6.72 -6.88 0
v -6.56 -6.88 0
v -6.72 -7.04 0
v -6.88 -7.04 0
v -6.88 -6.88 0
v -6.72 -6.88 0
v -6.88 -7.04 0
v -7.04 -7.04 0
v -7.04 -6.88 0
v -6.88 -6.88 0
v -7.04 -7.04 0
v -7.2 -7.04 0
v -7.2 -6.88 0
v -7.04 -6.88 0

# Texture cooridinates (Count = 36)
vt 0.28 0.5217391
vt 0.32 0.5217391
vt 0.32 0.5652174
vt 0.28 0.5652174
vt 0.36 0.6521739
vt 0.4 0.6521739
vt 0.4 0.6956522
vt 0.36 0.6956522
vt 0.44 0.6521739
vt 0.48 0.6521739
vt 0.48 0.6956522
vt 0.44 0.6956522
vt 0.44 0.5217391
vt 0.48 0.5217391
vt 0.48 0.5652174
vt 0.44 0.5652174
vt 0.12 0.9130435
vt 0.16 0.9130435
vt 0.16 0.9565217
vt 0.12 0.9565217
vt 0.32 0.7391304
vt 0.36 0.7391304
vt 0.36 0.7826087
vt 0.32 0.7826087
vt 0.04 0.9130435
vt 0.08 0.9130435
vt 0.08 0.9565217
vt 0.04 0.9565217
vt 0.2 0.3043478
vt 0.24 0.3043478
vt 0.24 0.3478261
vt 0.2 0.3478261
vt 0.16 0.4782609
vt 0.2 0.4782609
vt 0.2 0.5217391
vt 0.16 0.5217391

# Normal
vn 0 0 -1

# Mesh description
g Level_01_mesh_0001

# Faces
f 1/1/1 2/2/1 3/3/1 4/4/1
f 5/1/1 6/2/1 7/3/1 8/4/1
f 9/1/1 10/2/1 11/3/1 12/4/1
f 13/1/1 14/2/1 15/3/1 16/4/1
f 17/5/1 18/6/1 19/7/1 20/8/1
f 21/9/1 22/10/1 23/11/1 24/12/1
f 25/13/1 26/14/1 27/15/1 28/16/1
f 29/17/1 30/18/1 31/19/1 32/20/1
f 33/21/1 34/22/1 35/23/1 36/24/1
f 37/21/1 38/22/1 39/23/1 40/24/1
f 41/25/1 42/26/1 43/27/1 44/28/1
f 45/29/1 46/30/1 47/31/1 48/32/1
f 49/23/1 50/24/1 51/21/1 52/22/1
f 53/33/1 54/34/1 55/35/1 56/36/1
f 57/1/1 58/2/1 59/3/1 60/4/1
f 61/1/1 62/2/1 63/3/1 64/4/1
f 65/1/1 66/2/1 67/3/1 68/4/1
f 69/1/1 70/2/1 71/3/1 72/4/1
f 73/5/1 74/6/1 75/7/1 76/8/1
f 77/9/1 78/10/1 79/11/1 80/12/1
f 81/13/1 82/14/1 83/15/1 84/16/1
f 85/17/1 86/18/1 87/19/1 88/20/1
f 89/25/1 90/26/1 91/27/1 92/28/1
f 93/29/1 94/30/1 95/31/1 96/32/1
f 97/25/1 98/26/1 99/27/1 100/28/1
f 101/25/1 102/26/1 103/27/1 104/28/1
f 105/25/1 106/26/1 107/27/1 108/28/1
f 109/25/1 110/26/1 111/27/1 112/28/1
f 113/25/1 114/26/1 115/27/1 116/28/1
f 117/25/1 118/26/1 119/27/1 120/28/1
f 121/25/1 122/26/1 123/27/1 124/28/1
f 125/25/1 126/26/1 127/27/1 128/28/1
f 129/25/1 130/26/1 131/27/1 132/28/1
f 133/25/1 134/26/1 135/27/1 136/28/1
f 137/25/1 138/26/1 139/27/1 140/28/1
f 141/25/1 142/26/1 143/27/1 144/28/1
f 145/25/1 146/26/1 147/27/1 148/28/1
f 149/25/1 150/26/1 151/27/1 152/28/1
f 153/25/1 154/26/1 155/27/1 156/28/1
f 157/25/1 158/26/1 159/27/1 160/28/1
f 161/25/1 162/26/1 163/27/1 164/28/1
f 165/17/1 166/18/1 167/19/1 168/20/1
f 169/17/1 170/18/1 171/19/1 172/20/1
f 173/17/1 174/18/1 175/19/1 176/20/1
f 177/17/1 178/18/1 179/19/1 180/20/1
f 181/33/1 182/34/1 183/35/1 184/36/1

